<svg viewBox="0 0 960 600" xmlns="http://www.w3.org/2000/svg">
  <defs>
    <filter id="glow">
      <feGaussianBlur stdDeviation="2" result="blur"/>
      <feMerge><feMergeNode in="blur"/><feMergeNode in="SourceGraphic"/></feMerge>
    </filter>
    <style>
      .state { fill: #eef0f3; stroke: #dce0e6; stroke-width: 0.75; }
      .state:hover { fill: #e4e8ee; }
      .marker-completed { transition: r 0.3s; }
      .marker-completed:hover { r: 8; }
      .marker-construction { transition: r 0.3s; }
      .marker-construction:hover { r: 9; }
      .marker-future { transition: stroke-width 0.3s, r 0.3s; }
      .marker-future:hover { stroke-width: 2.5; r: 7; }
    </style>
  </defs>

  <!-- US States (simplified paths) -->
  <!-- WA -->
  <path class="state" d="M108 104L118 106L132 102L148 99L158 96L168 93L175 91L182 95L185 99L186 107L190 108L194 115L192 119L188 118L178 121L172 126L165 130L161 135L155 138L151 141L145 142L139 145L133 149L128 152L121 153L116 151L110 150L105 146L100 142L96 136L93 128L91 121L90 114L94 110L100 108Z"/>
  <!-- OR -->
  <path class="state" d="M90 114L91 121L93 128L96 136L100 142L105 146L110 150L116 151L121 153L120 162L118 172L117 180L115 190L113 198L108 202L102 198L95 196L88 195L82 192L78 188L74 183L72 176L70 170L68 162L67 155L68 148L70 140L74 134L78 128L82 122L86 118Z"/>
  <!-- CA -->
  <path class="state" d="M67 155L68 162L70 170L72 176L74 183L78 188L82 192L80 200L77 210L75 220L74 232L72 242L70 250L68 258L66 268L65 278L67 288L72 296L78 302L82 310L84 318L88 326L92 332L98 340L102 348L110 356L114 360L118 364L120 370L118 375L114 380L108 384L102 388L96 390L90 392L86 396L80 398L76 400L72 395L68 388L64 380L60 370L58 362L54 352L52 342L50 332L48 322L46 312L44 302L42 292L42 282L44 272L46 264L48 255L52 246L56 238L60 230L64 222L66 214L68 206L68 198L68 190L68 182L68 175L68 168Z"/>
  <!-- NV -->
  <path class="state" d="M118 200L120 210L122 220L124 230L128 240L132 250L136 258L140 268L144 278L148 288L152 296L155 304L158 312L160 318L155 320L148 322L140 322L134 320L128 316L122 312L116 308L112 304L108 298L105 290L102 282L100 274L98 266L96 258L95 250L94 242L94 234L94 226L96 218L98 210L100 204L104 200L108 198L113 198Z"/>
  <!-- ID -->
  <path class="state" d="M155 96L165 130L161 135L155 138L151 141L145 142L139 145L133 149L128 152L121 153L120 162L118 172L117 180L115 190L113 198L118 200L120 210L122 220L128 218L140 215L155 212L168 208L178 204L185 200L192 196L195 192L192 185L188 178L185 170L184 162L182 154L181 146L180 138L178 130L175 122L172 114L170 106L168 100L162 98Z"/>
  <!-- MT -->
  <path class="state" d="M168 93L175 91L182 95L185 99L186 107L190 108L194 115L195 122L198 130L202 138L208 142L218 140L232 138L248 137L264 136L280 135L296 134L310 134L318 134L322 136L322 142L320 150L316 158L312 164L308 168L302 170L296 168L290 168L284 170L278 172L272 172L266 170L260 168L254 168L248 170L242 170L236 168L230 170L224 170L218 168L212 168L206 170L200 172L196 176L192 180L188 178L185 170L184 162L182 154L181 146L180 138L178 130L175 122L172 114L170 106L168 100Z"/>
  <!-- WY -->
  <path class="state" d="M254 168L260 168L266 170L272 172L278 172L284 170L290 168L296 168L302 170L308 168L312 164L316 158L320 150L322 142L326 145L332 150L340 154L348 156L356 158L362 162L368 165L368 172L366 180L364 188L362 196L360 204L358 210L356 218L354 226L352 232L344 232L336 230L328 228L320 228L312 226L304 226L296 224L288 224L280 224L272 224L266 222L260 218L256 214L252 208L250 200L248 192L248 184L248 176L252 170Z"/>
  <!-- UT -->
  <path class="state" d="M192 196L195 192L192 185L188 178L196 176L200 172L206 170L212 168L218 168L224 170L230 170L236 168L242 170L248 170L248 176L248 184L248 192L248 200L250 208L246 210L238 212L230 214L222 216L214 218L208 222L200 226L196 230L192 236L188 244L184 252L180 260L176 268L172 276L168 282L164 286L160 290L156 294L155 304L152 296L148 288L144 278L140 268L136 258L132 250L128 240L124 230L122 220L128 218L140 215L155 212L168 208L178 204L185 200Z"/>
  <!-- CO -->
  <path class="state" d="M260 218L266 222L272 224L280 224L288 224L296 224L304 226L312 226L320 228L328 228L336 230L344 232L352 232L356 238L358 248L358 258L358 268L356 278L354 288L352 296L350 304L342 302L334 300L326 300L318 298L310 298L302 296L294 296L286 296L278 294L270 294L264 292L258 288L254 282L252 274L250 264L248 254L248 244L248 234L250 224L252 218Z"/>
  <!-- AZ -->
  <path class="state" d="M164 286L168 282L172 276L176 268L180 260L184 252L188 244L192 236L196 230L200 226L208 222L214 218L216 226L218 236L218 248L218 260L218 272L216 284L214 296L212 308L210 320L208 332L206 342L204 352L200 360L196 368L192 376L188 382L184 388L178 392L174 396L168 398L162 400L158 402L154 400L150 396L148 390L148 384L150 378L152 372L154 366L156 360L158 354L160 348L160 340L160 332L160 324L160 318L156 294Z"/>
  <!-- NM -->
  <path class="state" d="M258 288L264 292L270 294L278 294L286 296L294 296L302 296L310 298L318 298L326 300L334 300L342 302L350 304L352 310L354 320L354 330L354 340L352 350L350 360L348 370L346 378L344 386L342 394L340 402L338 408L332 408L324 408L316 406L308 406L300 404L292 404L284 402L276 402L268 400L262 398L256 394L250 388L246 380L244 372L242 364L240 356L238 348L236 340L234 332L232 324L230 316L228 308L228 300L228 294L232 290L238 288L246 288L252 288Z"/>
  <!-- ND -->
  <path class="state" d="M370 106L378 106L388 106L398 106L410 108L422 108L436 108L450 110L462 110L476 112L486 112L488 118L488 128L486 138L484 148L482 156L476 156L468 154L460 152L452 152L444 150L436 150L428 148L420 148L412 146L404 146L396 144L388 144L380 142L372 142L370 138L368 128L368 118L368 112Z"/>
  <!-- SD -->
  <path class="state" d="M368 165L372 142L380 142L388 144L396 144L404 146L412 146L420 148L428 148L436 150L444 150L452 152L460 152L468 154L476 156L482 156L480 165L478 174L476 183L474 192L472 200L464 200L456 198L448 198L440 196L432 196L424 194L416 194L408 192L400 192L392 192L384 192L376 190L370 188L368 182L368 175Z"/>
  <!-- NE -->
  <path class="state" d="M370 188L376 190L384 192L392 192L400 192L408 192L416 194L424 194L432 196L440 196L448 198L456 198L464 200L472 200L474 208L476 216L478 224L478 232L476 240L470 240L462 238L454 238L446 236L438 236L430 234L422 234L414 232L406 232L398 232L392 232L384 232L378 232L372 230L368 228L366 224L366 218L366 212L368 206L368 200L368 195Z"/>
  <!-- KS -->
  <path class="state" d="M366 252L372 252L380 252L388 252L398 252L408 254L418 254L428 254L438 254L448 256L458 256L468 256L476 256L484 258L490 258L494 258L494 268L494 278L492 288L490 298L488 306L480 306L472 304L464 304L456 302L448 302L440 300L432 300L424 298L416 298L408 296L400 296L392 296L384 294L376 294L370 292L366 288L364 280L364 270L364 262Z"/>
  <!-- OK -->
  <path class="state" d="M370 292L376 294L384 294L392 296L400 296L408 296L416 298L424 298L432 300L440 300L448 302L456 302L464 304L472 304L480 306L488 306L490 298L494 300L500 302L506 304L510 308L516 310L520 314L522 320L520 326L518 334L514 340L510 346L506 350L502 354L498 358L494 362L490 365L486 368L482 370L476 370L470 370L464 370L458 368L452 368L446 366L440 366L434 364L428 364L422 364L416 362L410 362L404 362L398 362L392 362L388 360L384 356L380 352L376 348L374 344L372 338L370 332L370 324L370 316L370 308L370 300Z"/>
  <!-- TX -->
  <path class="state" d="M370 332L372 338L374 344L376 348L380 352L384 356L388 360L392 362L398 362L404 362L410 362L416 362L422 364L428 364L434 364L440 366L446 366L452 368L458 368L464 370L470 370L476 370L482 370L486 368L490 365L494 362L498 358L502 354L506 350L510 346L514 340L518 344L522 350L524 358L524 368L522 378L520 388L516 398L512 406L508 414L502 420L498 426L492 432L488 438L482 442L478 448L472 452L466 456L460 460L454 462L448 464L442 466L436 466L430 466L426 464L422 460L418 456L414 450L410 444L406 440L402 436L398 432L394 430L388 428L382 424L376 422L370 420L366 418L362 414L360 408L358 400L358 392L358 384L358 376L360 368L362 360L364 354L366 346L368 340Z"/>
  <!-- MN -->
  <path class="state" d="M486 112L488 118L488 128L486 138L484 148L482 156L480 165L478 174L476 183L476 192L480 192L490 190L500 188L510 188L518 188L526 188L534 188L540 190L546 190L548 186L548 178L550 172L550 164L548 156L548 148L546 140L544 134L542 126L540 120L538 114L536 110L530 108L524 106L518 106L510 108L502 110L496 112Z"/>
  <!-- IA -->
  <path class="state" d="M476 240L478 232L478 224L476 216L474 208L480 208L490 206L500 204L510 204L518 204L526 204L534 204L540 206L546 208L552 210L556 216L558 224L558 232L556 240L554 248L550 254L544 254L536 254L528 252L520 252L512 252L504 250L496 250L488 248L482 246Z"/>
  <!-- MO -->
  <path class="state" d="M494 258L500 260L508 260L516 260L524 260L532 262L540 262L548 264L556 264L562 266L568 270L572 276L574 284L574 292L572 300L570 308L568 316L564 322L560 328L556 332L552 336L546 338L540 340L534 340L528 340L522 340L520 336L520 332L520 326L518 320L516 316L514 312L510 308L506 304L502 302L500 302L498 300L494 300L490 298L492 288L494 278L494 268Z"/>
  <!-- AR -->
  <path class="state" d="M522 340L528 340L534 340L540 340L546 338L552 336L556 332L560 328L564 322L568 316L572 318L576 322L580 328L582 336L582 344L580 352L578 360L576 368L572 374L568 378L564 382L558 384L552 386L546 386L540 386L534 384L528 384L522 382L518 380L514 376L512 370L510 364L510 358L512 352L514 346L516 342Z"/>
  <!-- LA -->
  <path class="state" d="M558 384L564 382L568 378L572 374L576 368L580 368L584 370L588 374L592 378L596 384L600 388L604 392L608 398L610 404L612 410L612 418L610 424L606 430L602 434L596 436L590 438L584 438L578 436L572 434L566 432L562 428L558 424L556 418L554 412L554 406L554 400L556 394L556 388Z"/>
  <!-- WI -->
  <path class="state" d="M540 120L542 126L544 134L546 140L548 148L548 156L550 164L550 172L548 178L548 186L552 186L558 184L564 182L570 180L576 180L582 182L586 184L590 188L594 192L596 198L598 204L598 210L596 216L592 220L588 222L582 222L576 220L570 218L564 216L558 214L554 210L550 206L546 208L540 206L534 204L536 196L536 188L534 180L532 172L530 164L530 156L530 148L530 140L530 132L532 124Z"/>
  <!-- IL -->
  <path class="state" d="M556 216L558 224L558 232L556 240L554 248L556 256L560 260L564 266L568 270L572 276L574 284L574 292L572 300L570 308L568 316L572 318L576 322L580 328L582 336L586 332L590 326L594 320L596 314L598 306L600 298L602 290L604 282L604 274L604 266L602 258L600 250L598 242L596 234L596 226L596 218L596 216L592 220L588 222L582 222L576 220L570 218L564 216L558 214Z"/>
  <!-- MS -->
  <path class="state" d="M582 336L586 340L590 346L594 352L596 360L598 368L598 376L596 384L594 392L592 400L590 408L590 416L588 424L586 430L584 438L578 436L572 434L566 432L562 428L558 424L556 418L554 412L554 406L554 400L556 394L556 388L558 384L552 386L546 386L540 386L542 392L544 398L544 406L542 414L540 420L538 428L536 434L534 440L532 444L528 444L524 442L520 438L518 432L518 426L518 420L520 414L520 408L522 400L522 394L524 388L526 382L528 376L530 370L532 364L534 358L536 352L538 346L540 340L546 338L552 336L556 332L560 328L564 322L568 316L572 318L576 322L580 328Z"/>
  <!-- AL -->
  <path class="state" d="M640 340L644 346L646 354L648 362L648 370L648 378L646 386L644 394L642 402L642 410L640 418L638 424L636 430L634 436L632 440L628 444L624 446L618 446L614 444L610 440L606 436L602 434L596 436L590 438L586 430L588 424L590 416L590 408L592 400L594 392L596 384L598 376L598 368L596 360L594 352L590 346L586 340L592 338L598 338L604 336L610 336L616 336L622 336L628 338L634 338Z"/>
  <!-- TN -->
  <path class="state" d="M582 336L586 332L590 326L594 320L596 314L604 314L614 312L624 312L634 312L644 312L654 312L664 314L674 314L684 316L694 318L700 320L706 322L710 326L714 330L716 334L712 336L706 338L700 340L694 340L688 340L682 340L676 340L670 340L664 340L658 340L652 340L646 340L640 340L634 338L628 338L622 336L616 336L610 336L604 336L598 338L592 338Z"/>
  <!-- KY -->
  <path class="state" d="M596 314L598 306L600 298L602 290L604 282L610 282L618 282L626 284L634 284L642 286L650 286L658 288L666 290L672 292L680 294L686 296L692 298L698 302L702 306L706 310L710 314L714 320L712 324L710 326L706 322L700 320L694 318L684 316L674 314L664 314L654 312L644 312L634 312L624 312L614 312L604 314Z"/>
  <!-- IN -->
  <path class="state" d="M604 266L604 274L604 282L610 282L618 282L626 284L634 284L642 286L646 282L648 276L648 268L648 260L646 252L644 244L642 236L640 230L636 224L632 218L628 216L622 216L616 218L612 222L608 228L606 236L604 244L604 254Z"/>
  <!-- OH -->
  <path class="state" d="M642 236L644 244L646 252L648 260L648 268L648 276L652 274L660 272L668 270L676 268L684 266L690 264L696 262L702 260L706 256L710 252L712 246L714 238L714 230L712 222L710 216L706 210L702 206L698 204L692 204L686 204L680 206L674 208L668 210L662 214L656 218L652 224L648 230Z"/>
  <!-- MI -->
  <path class="state" d="M596 198L598 204L598 210L602 212L608 212L614 210L620 210L626 210L632 212L636 216L640 222L636 224L632 218L628 216L622 216L616 218L612 222L608 228L606 236L604 244L604 254L604 258L600 252L598 244L596 236L596 228L596 226L596 218L596 216Z M620 138L626 140L632 144L638 150L642 156L644 162L644 168L642 174L640 180L636 184L632 186L626 186L622 184L618 180L614 176L612 170L610 164L610 158L612 152L614 146L618 140Z"/>
  <!-- GA -->
  <path class="state" d="M640 340L644 346L646 354L648 362L648 370L648 378L646 386L644 394L642 402L642 410L640 418L644 422L650 424L656 428L660 432L664 436L668 442L672 448L676 452L680 454L684 452L688 448L692 444L696 440L698 434L700 428L702 420L704 412L706 404L708 396L710 388L712 380L714 372L716 364L716 356L716 348L716 340L716 334L712 336L706 338L700 340L694 340L688 340L682 340L676 340L670 340L664 340L658 340L652 340L646 340Z"/>
  <!-- FL -->
  <path class="state" d="M680 454L684 452L688 448L692 444L696 440L698 434L700 428L702 420L704 412L706 404L710 406L716 408L722 410L728 414L734 418L738 422L742 428L746 434L748 442L750 450L750 458L748 466L744 474L740 480L734 486L728 492L722 496L714 498L708 498L702 496L696 490L692 484L690 476L688 468L686 460Z"/>
  <!-- SC -->
  <path class="state" d="M716 340L716 348L716 356L716 364L716 372L720 376L726 380L732 384L738 386L744 386L750 384L756 380L760 374L764 368L766 360L764 354L762 348L758 342L754 338L748 336L742 336L736 336L730 338L724 338Z"/>
  <!-- NC -->
  <path class="state" d="M714 320L714 330L716 334L716 340L724 338L730 338L736 336L742 336L748 336L754 338L758 342L762 348L766 350L772 348L778 344L784 340L790 336L796 332L800 328L804 322L808 318L812 314L814 308L812 304L808 302L802 302L796 304L790 308L784 312L778 316L772 318L766 320L760 320L754 320L748 320L742 320L736 320L730 320L724 320L718 320Z"/>
  <!-- VA -->
  <path class="state" d="M714 320L718 320L724 320L730 320L736 320L742 320L748 320L754 320L760 320L766 320L772 318L778 316L784 312L790 308L796 304L802 302L808 302L812 304L814 300L816 294L818 288L818 282L816 276L812 272L808 268L802 266L796 266L790 268L784 270L778 274L774 278L770 284L766 290L762 296L758 302L754 308L750 312L746 316L740 318L734 318L728 318L722 318Z"/>
  <!-- WV -->
  <path class="state" d="M714 238L714 246L712 252L710 260L714 264L718 268L722 272L724 278L726 284L728 290L728 296L726 302L722 308L718 314L714 320L712 314L710 306L706 310L702 306L698 302L692 298L686 296L680 294L682 286L686 278L690 272L694 268L696 262L702 260L706 256L710 252L712 246Z"/>
  <!-- PA -->
  <path class="state" d="M714 230L718 228L726 226L734 224L742 222L750 222L758 222L766 222L774 222L782 224L790 224L796 226L800 228L804 232L806 238L808 244L808 250L806 256L804 260L798 260L790 260L782 258L774 258L766 256L758 256L750 256L742 254L734 254L726 252L720 250L716 246L714 240Z"/>
  <!-- NY -->
  <path class="state" d="M790 224L796 226L800 228L804 232L808 236L812 234L818 232L824 228L830 224L836 222L840 218L842 212L842 206L840 200L838 194L834 190L828 188L822 186L818 184L812 184L808 186L802 188L798 192L794 196L792 200L790 206L790 214Z"/>
  <!-- NJ -->
  <path class="state" d="M808 244L812 244L816 246L820 250L822 256L822 262L820 268L818 274L814 278L810 280L806 276L804 270L804 264L806 258L806 254L808 248Z"/>
  <!-- CT -->
  <path class="state" d="M846 216L850 212L854 210L858 212L860 218L860 224L858 228L854 230L850 228L846 224Z"/>
  <!-- MA -->
  <path class="state" d="M842 200L846 198L852 196L858 194L864 194L870 196L876 198L880 202L882 208L880 212L876 214L870 214L864 212L858 212L854 210L850 208L846 206L844 204Z"/>
  <!-- VT -->
  <path class="state" d="M840 186L842 180L842 174L840 168L838 164L836 158L834 154L832 150L834 148L838 148L842 152L844 158L846 164L846 172L844 180L842 186Z"/>
  <!-- NH -->
  <path class="state" d="M846 164L848 158L850 152L852 148L856 148L858 154L858 162L856 170L854 178L852 186L850 192L848 194L846 190L846 182L846 172Z"/>
  <!-- ME -->
  <path class="state" d="M852 148L856 144L860 140L864 136L868 134L874 136L878 140L882 146L884 154L884 162L882 170L878 176L874 180L870 182L866 180L862 176L860 170L858 162L858 154L856 148Z"/>
  <!-- MD/DE -->
  <path class="state" d="M790 268L796 266L802 266L808 268L812 272L816 276L818 282L816 284L812 282L806 280L800 278L794 274Z"/>

  <!-- Legend -->
  <g transform="translate(60, 548)">
    <circle cx="0" cy="0" r="6" fill="#c8a45a"/>
    <text x="14" y="4" font-family="Inter, sans-serif" font-size="11" fill="#666" font-weight="400">Completed</text>
    <circle cx="120" cy="0" r="6" fill="#1e2837"/>
    <text x="134" y="4" font-family="Inter, sans-serif" font-size="11" fill="#666" font-weight="400">Under Construction</text>
    <circle cx="296" cy="0" r="6" fill="none" stroke="#c8a45a" stroke-width="1.5" stroke-dasharray="2 2"/>
    <text x="310" y="4" font-family="Inter, sans-serif" font-size="11" fill="#666" font-weight="400">Future Market</text>
  </g>

  <!-- === COMPLETED (gold filled) === -->
  <g class="pipeline-markers--completed">
    <circle class="marker-completed" cx="240" cy="292" r="6" fill="#c8a45a"><title>West Jordan, UT</title></circle>
    <circle class="marker-completed" cx="244" cy="286" r="6" fill="#c8a45a"><title>Draper, UT</title></circle>
    <circle class="marker-completed" cx="236" cy="278" r="6" fill="#c8a45a"><title>Salt Lake City, UT</title></circle>
    <circle class="marker-completed" cx="170" cy="148" r="6" fill="#c8a45a"><title>Richland, WA</title></circle>
    <circle class="marker-completed" cx="200" cy="388" r="6" fill="#c8a45a"><title>Tucson, AZ</title></circle>
    <circle class="marker-completed" cx="198" cy="368" r="6" fill="#c8a45a"><title>Chandler, AZ</title></circle>
    <circle class="marker-completed" cx="178" cy="118" r="6" fill="#c8a45a"><title>Spokane, WA</title></circle>
    <circle class="marker-completed" cx="202" cy="372" r="6" fill="#c8a45a"><title>Mesa, AZ</title></circle>
    <circle class="marker-completed" cx="218" cy="138" r="6" fill="#c8a45a"><title>Missoula, MT</title></circle>
    <circle class="marker-completed" cx="868" cy="152" r="6" fill="#c8a45a"><title>Portland, ME</title></circle>
    <circle class="marker-completed" cx="810" cy="196" r="6" fill="#c8a45a"><title>Syracuse, NY</title></circle>
    <circle class="marker-completed" cx="280" cy="148" r="6" fill="#c8a45a"><title>Billings, MT</title></circle>
    <circle class="marker-completed" cx="194" cy="366" r="6" fill="#c8a45a"><title>Tolleson, AZ</title></circle>
    <circle class="marker-completed" cx="190" cy="362" r="6" fill="#c8a45a"><title>Glendale, AZ</title></circle>
    <circle class="marker-completed" cx="680" cy="320" r="6" fill="#c8a45a"><title>Smyrna, TN</title></circle>
    <circle class="marker-completed" cx="468" cy="430" r="6" fill="#c8a45a"><title>San Marcos, TX</title></circle>
  </g>

  <!-- === UNDER CONSTRUCTION (dark with glow) === -->
  <g class="pipeline-markers--construction">
    <circle class="marker-construction" cx="674" cy="314" r="7" fill="#1e2837" filter="url(#glow)"><title>Nashville, TN</title></circle>
    <circle class="marker-construction" cx="462" cy="424" r="7" fill="#1e2837" filter="url(#glow)"><title>Austin, TX</title></circle>
    <circle class="marker-construction" cx="132" cy="112" r="7" fill="#1e2837" filter="url(#glow)"><title>Seattle, WA</title></circle>
    <circle class="marker-construction" cx="778" cy="312" r="7" fill="#1e2837" filter="url(#glow)"><title>Raleigh, NC</title></circle>
    <circle class="marker-construction" cx="790" cy="290" r="7" fill="#1e2837" filter="url(#glow)"><title>Hopewell, VA</title></circle>
  </g>

  <!-- === FUTURE MARKETS (dashed gold outline) === -->
  <g class="pipeline-markers--future">
    <circle class="marker-future" cx="196" cy="360" r="5.5" fill="none" stroke="#c8a45a" stroke-width="1.5" stroke-dasharray="2 2"><title>Phoenix, AZ</title></circle>
    <circle class="marker-future" cx="98" cy="268" r="5.5" fill="none" stroke="#c8a45a" stroke-width="1.5" stroke-dasharray="2 2"><title>Sacramento, CA</title></circle>
    <circle class="marker-future" cx="318" cy="268" r="5.5" fill="none" stroke="#c8a45a" stroke-width="1.5" stroke-dasharray="2 2"><title>Denver, CO</title></circle>
    <circle class="marker-future" cx="728" cy="442" r="5.5" fill="none" stroke="#c8a45a" stroke-width="1.5" stroke-dasharray="2 2"><title>Tampa, FL</title></circle>
    <circle class="marker-future" cx="738" cy="424" r="5.5" fill="none" stroke="#c8a45a" stroke-width="1.5" stroke-dasharray="2 2"><title>Daytona Beach, FL</title></circle>
    <circle class="marker-future" cx="722" cy="408" r="5.5" fill="none" stroke="#c8a45a" stroke-width="1.5" stroke-dasharray="2 2"><title>Jacksonville, FL</title></circle>
    <circle class="marker-future" cx="730" cy="486" r="5.5" fill="none" stroke="#c8a45a" stroke-width="1.5" stroke-dasharray="2 2"><title>Miami, FL</title></circle>
    <circle class="marker-future" cx="732" cy="436" r="5.5" fill="none" stroke="#c8a45a" stroke-width="1.5" stroke-dasharray="2 2"><title>Orlando, FL</title></circle>
    <circle class="marker-future" cx="720" cy="462" r="5.5" fill="none" stroke="#c8a45a" stroke-width="1.5" stroke-dasharray="2 2"><title>Fort Myers, FL</title></circle>
    <circle class="marker-future" cx="696" cy="368" r="5.5" fill="none" stroke="#c8a45a" stroke-width="1.5" stroke-dasharray="2 2"><title>Atlanta, GA</title></circle>
    <circle class="marker-future" cx="190" cy="200" r="5.5" fill="none" stroke="#c8a45a" stroke-width="1.5" stroke-dasharray="2 2"><title>Boise, ID</title></circle>
    <circle class="marker-future" cx="598" cy="228" r="5.5" fill="none" stroke="#c8a45a" stroke-width="1.5" stroke-dasharray="2 2"><title>Chicago, IL</title></circle>
    <circle class="marker-future" cx="660" cy="290" r="5.5" fill="none" stroke="#c8a45a" stroke-width="1.5" stroke-dasharray="2 2"><title>Louisville, KY</title></circle>
    <circle class="marker-future" cx="596" cy="424" r="5.5" fill="none" stroke="#c8a45a" stroke-width="1.5" stroke-dasharray="2 2"><title>New Orleans, LA</title></circle>
    <circle class="marker-future" cx="866" cy="198" r="5.5" fill="none" stroke="#c8a45a" stroke-width="1.5" stroke-dasharray="2 2"><title>Boston, MA</title></circle>
    <circle class="marker-future" cx="802" cy="272" r="5.5" fill="none" stroke="#c8a45a" stroke-width="1.5" stroke-dasharray="2 2"><title>Baltimore, MD</title></circle>
    <circle class="marker-future" cx="746" cy="330" r="5.5" fill="none" stroke="#c8a45a" stroke-width="1.5" stroke-dasharray="2 2"><title>Charlotte, NC</title></circle>
    <circle class="marker-future" cx="770" cy="322" r="5.5" fill="none" stroke="#c8a45a" stroke-width="1.5" stroke-dasharray="2 2"><title>Greenville, NC</title></circle>
    <circle class="marker-future" cx="816" cy="246" r="5.5" fill="none" stroke="#c8a45a" stroke-width="1.5" stroke-dasharray="2 2"><title>Princeton, NJ</title></circle>
    <circle class="marker-future" cx="284" cy="362" r="5.5" fill="none" stroke="#c8a45a" stroke-width="1.5" stroke-dasharray="2 2"><title>Albuquerque, NM</title></circle>
    <circle class="marker-future" cx="158" cy="318" r="5.5" fill="none" stroke="#c8a45a" stroke-width="1.5" stroke-dasharray="2 2"><title>Las Vegas, NV</title></circle>
    <circle class="marker-future" cx="122" cy="262" r="5.5" fill="none" stroke="#c8a45a" stroke-width="1.5" stroke-dasharray="2 2"><title>Reno, NV</title></circle>
    <circle class="marker-future" cx="680" cy="258" r="5.5" fill="none" stroke="#c8a45a" stroke-width="1.5" stroke-dasharray="2 2"><title>Columbus, OH</title></circle>
    <circle class="marker-future" cx="108" cy="154" r="5.5" fill="none" stroke="#c8a45a" stroke-width="1.5" stroke-dasharray="2 2"><title>Portland, OR</title></circle>
    <circle class="marker-future" cx="808" cy="240" r="5.5" fill="none" stroke="#c8a45a" stroke-width="1.5" stroke-dasharray="2 2"><title>Allentown, PA</title></circle>
    <circle class="marker-future" cx="742" cy="370" r="5.5" fill="none" stroke="#c8a45a" stroke-width="1.5" stroke-dasharray="2 2"><title>Charleston, SC</title></circle>
    <circle class="marker-future" cx="502" cy="428" r="5.5" fill="none" stroke="#c8a45a" stroke-width="1.5" stroke-dasharray="2 2"><title>Houston, TX</title></circle>
    <circle class="marker-future" cx="480" cy="388" r="5.5" fill="none" stroke="#c8a45a" stroke-width="1.5" stroke-dasharray="2 2"><title>Dallas, TX</title></circle>
    <circle class="marker-future" cx="452" cy="438" r="5.5" fill="none" stroke="#c8a45a" stroke-width="1.5" stroke-dasharray="2 2"><title>San Antonio, TX</title></circle>
    <circle class="marker-future" cx="786" cy="292" r="5.5" fill="none" stroke="#c8a45a" stroke-width="1.5" stroke-dasharray="2 2"><title>Richmond, VA</title></circle>
    <circle class="marker-future" cx="108" cy="508" r="5.5" fill="none" stroke="#c8a45a" stroke-width="1.5" stroke-dasharray="2 2"><title>Anchorage, AK</title></circle>
    <circle class="marker-future" cx="76" cy="530" r="5.5" fill="none" stroke="#c8a45a" stroke-width="1.5" stroke-dasharray="2 2"><title>Honolulu, HI</title></circle>
  </g>
</svg>
